#!OML:ASF X:\für Bonn\!DataBase\2005_08_12_Daniel\c3d\Daniel.ASF
:FULLY-SPECIFIED
:DEGREES
33
root -4.1289 13.8162 -1.06794 352.247 -87.7987 -371.669
lowerback 37.0822 -2.77605 2.63528
upperback 3.7341 -3.6233 -3.40536
thorax -14.7347 -2.04918 -3.45853
lowerneck 6.05418 1.22039 -1.65499
upperneck -1.54771 1.5656 2.2995
head -1.54332 0.737956 0.951873
rclavicle -6.85807e-015 9.54166e-015
rhumerus 89.6636 -26.6742 -196.191
rradius 9.97734
rwrist 163.874
rhand -24.1908 18.3271
rfingers 7.12502
rthumb 2.29309 -11.6404
lclavicle -6.85807e-015 9.54166e-015
lhumerus 59.4227 -12.0509 73.2764
lradius 11.1458
lwrist -46.4386
lhand -16.3101 -0.888709
lfingers 7.12502
lthumb 9.90095 28.8585
rfemur -21.1681 -25.8627 0.90358
rtibia 88.6093
rfoot -21.3958 22.6656
rtoes -7.60659
lfemur -26.9678 11.2848 -6.06571
ltibia 89.242
lfoot -26.3625 -27.2087
ltoes 5.08754
34
root -4.11267 13.6498 -1.07142 350.543 -87.788 -370.163
lowerback 37.6003 -2.77685 2.57929
upperback 3.80261 -3.65494 -3.40952
thorax -14.849 -2.06384 -3.40364
lowerneck 6.27161 1.24921 -1.56367
upperneck -1.79751 1.61054 2.22259
head -1.66133 0.759822 0.910387
rclavicle 2.51463e-014 3.65764e-014
rhumerus 89.717 -26.2837 -196.388
rradius 9.92879
rwrist 164.104
rhand -24.4613 18.2257
rfingers 7.12502
rthumb 2.03186 -11.7443
lclavicle 2.51463e-014 3.65764e-014
lhumerus 59.8516 -12.3565 72.2693
lradius 11.5211
lwrist -45.3436
lhand -16.2001 -0.811542
lfingers 7.12502
lthumb 10.0071 28.9306
rfemur -22.0233 -27.0227 -0.150062
rtibia 90.7005
rfoot -20.8229 24.0953
rtoes -7.27144
lfemur -28.08 12.3552 -5.42467
ltibia 91.2331
lfoot -25.3622 -28.6825
ltoes 5.94096
35
root -4.09627 13.4797 -1.07411 349.047 -87.7718 -368.903
lowerback 38.1398 -2.78489 2.55121
upperback 3.89613 -3.68839 -3.42258
thorax -14.9412 -2.08158 -3.37196
lowerneck 6.46489 1.27939 -1.49438
upperneck -2.03532 1.65722 2.18673
head -1.77261 0.781897 0.885462
rclavicle 2.18663e-014 5.56597e-015
rhumerus 89.7939 -25.875 -196.593
rradius 9.85727
rwrist 164.306
rhand -24.7028 18.134
rfingers 7.12502
rthumb 1.79859 -11.8381
lclavicle 2.18663e-014 5.56597e-015
lhumerus 60.2818 -12.6404 71.2605
lradius 11.9619
lwrist -44.2076
lhand -15.9874 -0.727346
lfingers 7.12502
lthumb 10.2124 29.0048
rfemur -22.7971 -28.2182 -1.27536
rtibia 92.7716
rfoot -20.2228 25.5567
rtoes -6.93124
lfemur -29.178 13.4301 -4.75253
ltibia 93.2322
lfoot -24.3113 -30.1093
ltoes 6.69982
36
root -4.08023 13.3077 -1.07713 347.337 -87.7703 -367.452
lowerback 38.7112 -2.77694 2.48557
upperback 3.98179 -3.71465 -3.41613
thorax -15.0467 -2.09381 -3.30122
lowerneck 6.69769 1.3108 -1.42098
upperneck -2.30526 1.70462 2.1078
head -1.90138 0.805104 0.845853
rclavicle 2.28602e-015 -3.18055e-015
rhumerus 89.8719 -25.54 -196.766
rradius 9.74336
rwrist 164.485
rhand -24.8867 18.0572
rfingers 7.12502
rthumb 1.62095 -11.9164
lclavicle 2.28602e-015 -3.18055e-015
lhumerus 60.5808 -12.8057 70.5034
lradius 12.4948
lwrist -43.2521
lhand -15.7464 -0.562356
lfingers 7.12502
lthumb 10.4448 29.1582
rfemur -23.4873 -29.4108 -2.47338
rtibia 94.8108
rfoot -19.6106 27.0523
rtoes -6.59663
lfemur -30.2491 14.5276 -4.06863
ltibia 95.2224
lfoot -23.3153 -31.4361
ltoes 7.26647
37
root -4.06396 13.1342 -1.08008 346.858 -87.7697 -367.273
lowerback 39.3236 -2.78918 2.49036
upperback 4.07474 -3.73975 -3.41826
thorax -15.1591 -2.11005 -3.27664
lowerneck 6.95791 1.32478 -1.34734
upperneck -2.58961 1.7298 2.05407
head -2.04055 0.816354 0.814733
rclavicle -7.65321e-015 9.54166e-015
rhumerus 89.9764 -25.2327 -196.969
rradius 9.62553
rwrist 164.662
rhand -24.9794 17.9561
rfingers 7.12502
rthumb 1.53146 -12.0181
lclavicle -7.65321e-015 9.54166e-015
lhumerus 60.8445 -12.9464 69.8343
lradius 13.0481
lwrist -42.3519
lhand -15.4413 -0.420858
lfingers 7.12502
lthumb 10.7391 29.2846
rfemur -24.0567 -30.6294 -3.7047
rtibia 96.8162
rfoot -19.0295 28.545
rtoes -6.33117
lfemur -31.2882 15.6225 -3.31088
ltibia 97.2136
lfoot -22.3768 -32.683
ltoes 7.76608
38
root -4.04757 12.9573 -1.08319 345.764 -87.7722 -366.482
lowerback 39.9199 -2.78578 2.46466
upperback 4.18199 -3.75898 -3.41571
thorax -15.2422 -2.12235 -3.23412
lowerneck 7.19967 1.34223 -1.30056
upperneck -2.86797 1.75742 1.99861
head -2.1756 0.829343 0.78744
rclavicle 1.0138e-014 3.10104e-014
rhumerus 90.1149 -24.9581 -197.151
rradius 9.41676
rwrist 164.776
rhand -25.0317 17.8367
rfingers 7.12502
rthumb 1.48099 -12.1379
lclavicle 1.0138e-014 3.10104e-014
lhumerus 61.1629 -13.1146 69.0608
lradius 13.5837
lwrist -41.3041
lhand -15.1614 -0.254067
lfingers 7.12502
lthumb 11.0091 29.4372
rfemur -24.5761 -31.8892 -5.04214
rtibia 98.8153
rfoot -18.4302 30.0789
rtoes -5.96472
lfemur -32.3084 16.7202 -2.55496
ltibia 99.1969
lfoot -21.4735 -33.8989
ltoes 8.22051
39
root -4.03221 12.7753 -1.08695 345.221 -87.7825 -366.249
lowerback 40.5431 -2.78643 2.44858
upperback 4.27849 -3.77884 -3.40951
thorax -15.3436 -2.13549 -3.19162
lowerneck 7.36495 1.35957 -1.22542
upperneck -3.08785 1.78771 1.952
head -2.27773 0.843551 0.757924
rclavicle -5.99336e-014 -3.65764e-014
rhumerus 90.2831 -24.7237 -197.343
rradius 9.15599
rwrist 164.889
rhand -25.063 17.6841
rfingers 7.12502
rthumb 1.45068 -12.2907
lclavicle -5.99336e-014 -3.65764e-014
lhumerus 61.4751 -13.2487 68.3342
lradius 14.0744
lwrist -40.3155
lhand -14.9247 -0.115422
lfingers 7.12502
lthumb 11.2374 29.5636
rfemur -25.0269 -33.1869 -6.45409
rtibia 100.813
rfoot -17.8276 31.6251
rtoes -5.67908
lfemur -33.3014 17.8759 -1.71499
ltibia 101.178
lfoot -20.6127 -35.168
ltoes 8.59864
40
root -4.01694 12.589 -1.09039 344.4 -87.7781 -365.744
lowerback 41.1858 -2.79177 2.42672
upperback 4.36506 -3.8078 -3.4056
thorax -15.46 -2.15229 -3.14378
lowerneck 7.45961 1.37213 -1.11904
upperneck -3.24202 1.812 1.86005
head -2.34412 0.856293 0.708747
rclavicle 1.76918e-014 1.27222e-014
rhumerus 90.467 -24.4964 -197.533
rradius 8.85696
rwrist 165.032
rhand -25.017 17.5019
rfingers 7.12502
rthumb 1.49516 -12.4726
lclavicle 1.76918e-014 1.27222e-014
lhumerus 61.8105 -13.4313 67.5024
lradius 14.5265
lwrist -39.2737
lhand -14.8024 0.126099
lfingers 7.12502
lthumb 11.3553 29.7987
rfemur -25.4046 -34.5382 -8.0063
rtibia 102.823
rfoot -17.2148 33.2185
rtoes -5.29908
lfemur -34.2722 19.0564 -0.845394
ltibia 103.155
lfoot -19.7576 -36.4531
ltoes 8.9881
41
root -4.00133 12.3969 -1.09427 343.89 -87.7832 -365.568
lowerback 41.8331 -2.78935 2.40782
upperback 4.45532 -3.82508 -3.39163
thorax -15.5672 -2.16432 -3.09194
lowerneck 7.63465 1.38407 -1.06063
upperneck -3.46053 1.83383 1.81842
head -2.4485 0.866262 0.683714
rclavicle -2.51463e-014 -2.14687e-014
rhumerus 90.6187 -24.1774 -197.715
rradius 8.60324
rwrist 165.138
rhand -24.8713 17.3785
rfingers 7.12502
rthumb 1.63591 -12.595
lclavicle -2.51463e-014 -2.14687e-014
lhumerus 62.2202 -13.6651 66.4818
lradius 14.882
lwrist -38.1226
lhand -14.8076 0.275103
lfingers 7.12502
lthumb 11.3503 29.9479
rfemur -25.6811 -35.9326 -9.6794
rtibia 104.828
rfoot -16.5916 34.9038
rtoes -5.00972
lfemur -35.2042 20.3126 0.12956
ltibia 105.143
lfoot -18.8901 -37.8049
ltoes 9.31177
42
root -3.9854 12.1999 -1.09827 343.146 -87.7697 -365.158
lowerback 42.4763 -2.7946 2.38519
upperback 4.55082 -3.85641 -3.38624
thorax -15.664 -2.18261 -3.04106
lowerneck 7.72988 1.39058 -0.97121
upperneck -3.62222 1.84937 1.74082
head -2.51833 0.874398 0.642179
rclavicle -1.92821e-014 -1.35174e-014
rhumerus 90.7556 -23.8173 -197.905
rradius 8.35514
rwrist 165.364
rhand -24.7124 17.198
rfingers 7.12502
rthumb 1.78936 -12.7742
lclavicle -1.92821e-014 -1.35174e-014
lhumerus 62.6573 -13.8883 65.4199
lradius 15.1983
lwrist -37.0382
lhand -14.9118 0.423182
lfingers 7.12502
lthumb 11.2499 30.1015
rfemur -25.8707 -37.4102 -11.5302
rtibia 106.853
rfoot -15.9502 36.6086
rtoes -4.74086
lfemur -36.1245 21.6153 1.13042
ltibia 107.108
lfoot -17.9382 -39.167
ltoes 9.72375
43
root -3.97093 12.0014 -1.1021 343.112 -87.7809 -365.471
lowerback 43.1018 -2.79945 2.3966
upperback 4.65959 -3.87483 -3.38915
thorax -15.7359 -2.19799 -3.0242
lowerneck 7.81317 1.39293 -0.858778
upperneck -3.7516 1.86207 1.67928
head -2.57516 0.880286 0.601869
rclavicle -8.74653e-015 -3.81667e-014
rhumerus 90.9022 -23.4168 -198.123
rradius 8.12625
rwrist 165.591
rhand -24.5764 17.0233
rfingers 7.12502
rthumb 1.92071 -12.9478
lclavicle -8.74653e-015 -3.81667e-014
lhumerus 63.1741 -14.2898 63.8279
lradius 15.5982
lwrist -35.5046
lhand -15.1173 0.588688
lfingers 7.12502
lthumb 11.0516 30.2777
rfemur -25.9218 -38.8951 -13.485
rtibia 108.835
rfoot -15.3188 38.3595
rtoes -4.45084
lfemur -36.9505 23.0038 2.25826
ltibia 109.03
lfoot -16.9427 -40.6156
ltoes 10.0992
44
root -3.95637 11.8026 -1.10674 342.523 -87.7945 -365.229
lowerback 43.733 -2.78943 2.3707
upperback 4.76143 -3.89019 -3.37939
thorax -15.8101 -2.20991 -2.97524
lowerneck 7.82987 1.39878 -0.77761
upperneck -3.78917 1.87433 1.60144
head -2.58889 0.887605 0.562046
rclavicle 1.59028e-014 -1.27222e-014
rhumerus 90.9986 -23.0421 -198.313
rradius 7.93526
rwrist 165.841
rhand -24.5195 16.825
rfingers 7.12502
rthumb 1.97564 -13.1456
lclavicle 1.59028e-014 -1.27222e-014
lhumerus 63.6965 -14.6569 62.1996
lradius 16.0037
lwrist -34.0707
lhand -15.3182 0.800136
lfingers 7.12502
lthumb 10.8578 30.4994
rfemur -25.8462 -40.4381 -15.6397
rtibia 110.793
rfoot -14.5691 40.1687
rtoes -4.06551
lfemur -37.7275 24.4723 3.43803
ltibia 110.914
lfoot -15.8833 -42.0624
ltoes 10.512
45
root -3.94183 11.6019 -1.11232 342.237 -87.7904 -365.288
lowerback 44.3617 -2.78744 2.33345
upperback 4.85976 -3.91811 -3.35156
thorax -15.8818 -2.22626 -2.89413
lowerneck 7.81894 1.41682 -0.740915
upperneck -3.79022 1.89836 1.53177
head -2.58601 0.901458 0.532188
rclavicle 3.37934e-014 1.35174e-014
rhumerus 91.0277 -22.6781 -198.483
rradius 7.82727
rwrist 166.183
rhand -24.5655 16.6664
rfingers 7.12502
rthumb 1.93117 -13.3046
lclavicle 3.37934e-014 1.35174e-014
lhumerus 64.1517 -14.8828 60.8436
lradius 16.3608
lwrist -33.0029
lhand -15.6159 0.925718
lfingers 7.12502
lthumb 10.5707 30.6399
rfemur -25.5728 -42.066 -18.0139
rtibia 112.721
rfoot -13.8225 42.0361
rtoes -3.74127
lfemur -38.4855 26.0055 4.70228
ltibia 112.778
lfoot -14.7933 -43.5597
ltoes 10.8695
